<?xml version="1.0" encoding="UTF-8"?>
<svg width="127px" height="99px" viewBox="0 0 127 99" version="1.1" xmlns="http://www.w3.org/2000/svg" xmlns:xlink="http://www.w3.org/1999/xlink">
    <!-- Generator: Sketch 53.2 (72643) - https://sketchapp.com -->
    <title>tier-25</title>
    <desc>Created with Sketch.</desc>
    <defs>
        <rect id="path-1" x="4.54747351e-13" y="0" width="130" height="130"/>
    </defs>
    <g id="🌳-FINAL" stroke="none" stroke-width="1" fill="none" fill-rule="evenodd">
        <g id="tier-25" transform="translate(0.000000, -15.000000)">
            <g id="duo">
                <mask id="mask-2" fill="white">
                    <use xlink:href="#path-1"/>
                </mask>
                <g id="Rectangle" fill-rule="nonzero"/>
                <path d="M90.951078,10.9764396 L112.236906,10.9764396 C119.371436,23.4731447 120.715054,39.0273183 115.009436,53.2075136 C107.179799,72.6665414 88.0113023,84.7274197 67.765191,83.4207664 C64.9040399,83.236112 63.05884,80.2971301 64.1310383,77.6323915 L90.951078,10.9764396 Z" id="Combined-Shape-Copy-11" fill="#78C800" fill-rule="nonzero" mask="url(#mask-2)" transform="translate(91.191891, 47.246853) scale(-1, 1) rotate(92.000000) translate(-91.191891, -47.246853) "/>
                <path d="M55.6807709,12.8531926 L76.9665988,12.8531926 C84.1011293,25.3498977 85.4447469,40.9040713 79.7391289,55.0842666 C71.909492,74.5432944 52.7409952,86.6041727 32.4948839,85.2975193 C29.6337328,85.112865 27.7885329,82.1738831 28.8607312,79.5091445 L55.6807709,12.8531926 Z" id="Combined-Shape-Copy-12" fill="#72BF00" fill-rule="nonzero" mask="url(#mask-2)" transform="translate(55.914153, 49.020632) rotate(92.000000) translate(-55.914153, -49.020632) "/>
                <ellipse id="Oval-31-Copy" fill="#F49000" mask="url(#mask-2)" cx="114.652084" cy="82.7124775" rx="7.73187077" ry="7.7528215"/>
                <ellipse id="Oval-31-Copy-2" fill="#F49000" mask="url(#mask-2)" cx="82.9550288" cy="106.077817" rx="7.73187077" ry="7.7528215"/>
                <path d="M85.7328185,16.5197398 C103.778844,23.096202 116.664419,40.4073766 116.664419,60.7281386 C116.664419,86.7066947 95.6046379,107.766475 69.6260819,107.766475 L69.4650464,107.766475 C43.4864903,107.766475 22.4267096,86.7066947 22.4267096,60.7281386 C22.4267096,43.0282405 32.2028034,27.6116715 46.6499662,19.5834563 L46.6499662,23.813763 L61.6393596,25.1219026 L85.7328185,19.8893444 L85.7328185,16.5197398 Z" id="Combined-Shape" fill="#78C800" mask="url(#mask-2)"/>
                <rect id="Rectangle" fill="#8EE000" mask="url(#mask-2)" x="61.3079922" y="31.8324348" width="32.5690435" height="36.627907" rx="16.2845218"/>
                <rect id="Rectangle" fill="#8EE000" mask="url(#mask-2)" x="27.4361869" y="31.8324348" width="29.96352" height="36.627907" rx="14.98176"/>
                <path d="M51.5719459,34.9999228 C55.7889974,38.1331967 62.8190799,39.3806542 68.3643628,34.7016816 C72.3507494,34.4034405 67.4798111,41.4048414 67.4798111,41.4048414 C67.4798111,41.4048414 67.1685778,46.5786412 66.5461111,56.9262407 L60.7760315,61.7555569 L51.902082,57.4391278 L53.029713,42.4583279 C49.2465007,35.3972085 48.7605783,32.9110735 51.5719459,34.9999228 Z" id="Path-9" fill="#8EE000" mask="url(#mask-2)"/>
                <path d="M38.273678,31.047961 L54.1962785,30.8323322 C55.0414973,30.8299179 55.6384326,31.6517469 55.3751702,32.4553679 C54.1102877,36.3164816 50.4546631,38.9907418 46.2885398,39.002642 C42.1224164,39.0145422 38.4820055,36.3611226 37.2391541,32.5071721 C36.980477,31.705042 37.4284592,31.0503753 38.273678,31.047961 Z" id="Combined-Shape-Copy-57" fill="#8EE000" fill-rule="nonzero" mask="url(#mask-2)" transform="translate(46.302054, 34.917504) rotate(-312.000000) translate(-46.302054, -34.917504) "/>
                <path d="M32.2526384,33.6606709 L48.0215824,33.6156281 C48.8668012,33.6132138 49.4637365,34.4350427 49.2004741,35.2386638 C47.9355916,39.0997775 44.279967,41.7740377 40.1138437,41.7859379 C35.9477204,41.7978381 32.3073094,39.1444185 31.064458,35.290468 C30.8057809,34.4883378 31.4074196,33.6630852 32.2526384,33.6606709 Z" id="Combined-Shape-Copy-58" fill="#8EE000" fill-rule="nonzero" mask="url(#mask-2)" transform="translate(40.133567, 37.700800) rotate(-312.000000) translate(-40.133567, -37.700800) "/>
                <path d="M65.6800313,31.047961 L81.6026318,30.8323322 C82.4478506,30.8299179 83.0447859,31.6517469 82.7815235,32.4553679 C81.516641,36.3164816 77.8610164,38.9907418 73.6948931,39.002642 C69.5287698,39.0145422 65.8883588,36.3611226 64.6455074,32.5071721 C64.3868303,31.705042 64.8348125,31.0503753 65.6800313,31.047961 Z" id="Combined-Shape-Copy-57" fill="#8EE000" fill-rule="nonzero" mask="url(#mask-2)" transform="translate(73.708407, 34.917504) scale(-1, 1) rotate(-312.000000) translate(-73.708407, -34.917504) "/>
                <path d="M71.9959644,33.6606709 L87.7649084,33.6156281 C88.6101272,33.6132138 89.2070625,34.4350427 88.9438001,35.2386638 C87.6789176,39.0997775 84.0232931,41.7740377 79.8571697,41.7859379 C75.6910464,41.7978381 72.0506355,39.1444185 70.807784,35.290468 C70.5491069,34.4883378 71.1507456,33.6630852 71.9959644,33.6606709 Z" id="Combined-Shape-Copy-58" fill="#8EE000" fill-rule="nonzero" mask="url(#mask-2)" transform="translate(79.876893, 37.700800) scale(-1, 1) rotate(-312.000000) translate(-79.876893, -37.700800) "/>
                <path d="M42.7363206,38.2090453 L42.7363206,38.2090453 C48.4922842,38.2090453 53.1584146,42.8751757 53.1584146,48.6311392 L53.1584146,53.9497421 C53.1584146,59.7057056 48.4922842,64.371836 42.7363206,64.371836 L42.7363206,64.371836 C36.9803571,64.371836 32.3142267,59.7057056 32.3142267,53.9497421 L32.3142267,48.6311392 C32.3142267,42.8751757 36.9803571,38.2090453 42.7363206,38.2090453 Z" id="Mask" fill="#FFFFFF" mask="url(#mask-2)"/>
                <path d="M44.0390824,49.7986336 C44.3170425,49.8792149 44.6108205,49.9223974 44.9146515,49.9223974 C46.6532911,49.9223974 48.0627369,48.5083544 48.0627369,46.764044 C48.0627369,46.0646469 47.8361428,45.4183462 47.4525893,44.8950039 C47.8188081,44.8001892 48.2028871,44.749743 48.5987485,44.749743 C51.1169825,44.749743 53.1584146,46.791175 53.1584146,49.3094091 L53.1584146,55.8877513 C53.1584146,58.4059853 51.1169825,60.4474174 48.5987485,60.4474174 C46.0805144,60.4474174 44.0390824,58.4059853 44.0390824,55.8877513 L44.0390824,49.7986336 Z" id="Combined-Shape" fill="#4B4B4B" mask="url(#mask-2)"/>
                <rect id="Mask" fill="#FFFFFF" mask="url(#mask-2)" x="67.4887937" y="38.2090453" width="20.8441879" height="26.1627907" rx="10.4220939"/>
                <path d="M67.4887937,49.7986336 C67.7667538,49.8792149 68.0605318,49.9223974 68.3643628,49.9223974 C70.1030024,49.9223974 71.5124483,48.5083544 71.5124483,46.764044 C71.5124483,45.5687732 70.8506381,44.5285807 69.874596,43.9921784 C70.5207777,43.6410559 71.2613265,43.4416034 72.0484598,43.4416034 C74.5666939,43.4416034 76.6081259,45.4830355 76.6081259,48.0012695 L76.6081259,54.5796118 C76.6081259,57.0978458 74.5666939,59.1392779 72.0484598,59.1392779 C69.5302258,59.1392779 67.4887937,57.0978458 67.4887937,54.5796118 L67.4887937,49.7986336 Z" id="Combined-Shape" fill="#4B4B4B" mask="url(#mask-2)"/>
                <ellipse id="Oval-2" fill="#78C800" mask="url(#mask-2)" cx="36.7425219" cy="68.5082005" rx="17.5872835" ry="17.6598837"/>
                <path d="M59.3833963,56.477419 L59.3833963,56.477419 C62.5207484,56.477419 65.0640748,59.0207454 65.0640748,62.1580975 L65.0640748,67.4618333 C65.0640748,70.826329 62.3366122,73.5537917 58.9721165,73.5537917 L58.9721165,73.5537917 C55.5966238,73.5537917 52.8496886,70.8374969 52.8118269,67.4622166 L52.79749,66.1841118 L53.1752373,62.1335548 C53.4741608,58.9282193 56.1641524,56.477419 59.3833963,56.477419 Z" id="Rectangle-3" fill="#F49000" mask="url(#mask-2)"/>
                <path d="M50.9885474,61.7071921 C50.9885474,57.8447905 54.1970572,54.7824024 58.0717397,54.7824024 C61.9464221,54.7824024 65.0200139,57.8447905 65.0200139,61.7071921 C65.0200139,61.8372969 65.0131153,62.0676038 64.999566,62.2451534 L51.0089954,62.2451534 C50.995446,62.0676038 50.9885474,61.888201 50.9885474,61.7071921 Z" id="Combined-Shape" fill="#FFC200" mask="url(#mask-2)"/>
                <path d="M57.3755236,55.9628473 L58.8235537,55.9628473 C59.6212236,55.9628473 60.2678628,56.6094866 60.2678628,57.4071565 L60.2678628,57.4071565 C60.2678628,58.2048263 59.6212236,58.8514656 58.8235537,58.8514656 L57.3755236,58.8514656 C56.5778537,58.8514656 55.9312145,58.2048263 55.9312145,57.4071565 L55.9312145,57.4071565 C55.9312145,56.6094866 56.5778537,55.9628473 57.3755236,55.9628473 Z" id="Rectangle-82" fill="#FFEB16" mask="url(#mask-2)"/>
                <path d="M29.709134,36.4587819 C29.7488547,36.4004897 30.0020913,34.9744125 30.0417104,34.9161353 C36.2537394,25.7786235 41.0063489,18.2212219 45.9201856,18.2212219 C50.8653619,18.2212219 54.2919401,23.9422633 60.8928473,23.9422633 C67.4937545,23.9422633 79.7245926,15.153086 85.7600117,15.153086 C89.6284372,15.153086 94.6590125,19.878058 99.0233567,23.9422633 C104.408541,28.9571049 105.392465,33.7992505 108.138275,37.5327428 C111.45235,42.0389073 103.641946,38.2477102 84.7070626,26.1591514 L77.3636451,24.1140499 L53.3024071,28.6018337 C48.7416844,25.9663028 45.3836201,24.9043783 43.2282142,25.41606 C41.4852788,25.8298234 39.0219073,26.3140226 36.5728675,28.1487413 C33.9772873,30.093242 31.397805,36.0097647 29.709134,36.4587819 Z" id="Path-5-Copy" fill="#78C800" mask="url(#mask-2)"/>
                <path d="M41.3623996,57.48929 C42.9973886,56.584025 44.5028485,56.28227 45.8787794,56.584025" id="Path-2-Copy-2" stroke="#8EE000" stroke-width="5.86701682" stroke-linecap="round" stroke-linejoin="round" mask="url(#mask-2)" transform="translate(43.620590, 56.980078) scale(-1, 1) translate(-43.620590, -56.980078) "/>
                <path d="M46.3949375,82.8533706 L55.5101215,82.8498767 C55.9986973,82.8496895 56.3449322,83.3302761 56.1939032,83.7989906 C55.4682623,86.0509974 53.358953,87.6067494 50.9507397,87.6076725 C48.5425264,87.6085956 46.4343875,86.0544601 45.7104413,83.8030089 C45.559765,83.3344101 45.9063617,82.8535578 46.3949375,82.8533706 Z" id="Combined-Shape-Copy-46" fill="#8EE000" fill-rule="nonzero" mask="url(#mask-2)"/>
                <path d="M62.3020828,82.8533706 L71.4172668,82.8498767 C71.9058426,82.8496895 72.2520775,83.3302761 72.1010484,83.7989906 C71.3754076,86.0509974 69.2660983,87.6067494 66.857885,87.6076725 C64.4496717,87.6085956 62.3415327,86.0544601 61.6175866,83.8030089 C61.4669103,83.3344101 61.813507,82.8535578 62.3020828,82.8533706 Z" id="Combined-Shape-Copy-46" fill="#8EE000" fill-rule="nonzero" mask="url(#mask-2)"/>
                <path d="M54.3485102,91.0281295 L63.4636941,91.0246357 C63.9522699,91.0244484 64.2985048,91.5050351 64.1474758,91.9737496 C63.4218349,94.2257564 61.3125256,95.7815084 58.9043123,95.7824315 C56.4960991,95.7833545 54.3879601,94.229219 53.664014,91.9777679 C53.5133377,91.509169 53.8599344,91.0283168 54.3485102,91.0281295 Z" id="Combined-Shape-Copy-46" fill="#8EE000" fill-rule="nonzero" mask="url(#mask-2)"/>
                <path d="M58.4903659,56.8886324 L58.4903659,56.8886324 C61.6598416,56.8886324 64.2292093,59.4580001 64.2292093,62.6274758 L64.2292093,68.0067374 C64.2292093,71.4056824 61.47382,74.1610718 58.074875,74.1610718 L58.074875,74.1610718 C54.6648339,74.1610718 51.8897967,71.4169507 51.8515945,68.0071236 L51.837026,66.7067751 L52.2192901,62.6027423 C52.5208975,59.3646491 55.2382567,56.8886324 58.4903659,56.8886324 Z" id="Rectangle-3" fill="#F49000" mask="url(#mask-2)"/>
                <rect id="Rectangle" fill="#FD5353" mask="url(#mask-2)" x="51.9339006" y="61.4527453" width="7.21553208" height="6.15495539" rx="3.0774777"/>
                <path d="M13.0994111,73.7061612 L55.8714486,73.6392512 C57.348688,73.6369403 58.5481005,74.8326061 58.5504114,76.3098456 C58.5504158,76.3126328 58.5504158,76.31542 58.5504115,76.3182071 L58.5503499,76.3576308 C58.5480479,77.8316059 57.3537306,79.0259262 55.8797555,79.028232 L13.1077181,79.095142 C11.6304786,79.0974529 10.4310661,77.9017871 10.4287552,76.4245477 C10.4287509,76.4217605 10.4287509,76.4189733 10.4287552,76.4161861 L10.4288168,76.3767625 C10.4311187,74.9027874 11.625436,73.708467 13.0994111,73.7061612 Z" id="Mask" fill="#FFD849" mask="url(#mask-2)" transform="translate(34.489583, 76.367197) rotate(329.000000) translate(-34.489583, -76.367197) "/>
                <polygon id="Path" fill="#FFB200" mask="url(#mask-2)" points="28.7155321 76.7024543 35.2849765 72.7411335 35.2849765 79.0340287 28.7155321 82.9953494"/>
                <polygon id="Path" fill="#FFB200" mask="url(#mask-2)" points="40.6599765 69.5000529 47.229421 65.5387322 47.229421 71.8316273 40.6599765 75.7929481"/>
                <path d="M16.7710876,83.9048556 L23.3405321,79.9435349 L23.3405321,86.23643 L17.5667433,89.7179769 C17.3133499,89.8707711 17.0447562,89.976625 16.7710876,90.0380466 L16.7710876,83.9048556 Z" id="Path" fill="#FFB200" mask="url(#mask-2)"/>
                <rect id="Rectangle-115" fill="#FFB200" mask="url(#mask-2)" x="0.298611111" y="79.0642286" width="19.4097222" height="11.9868088" rx="4.45796978"/>
                <path d="M50.0095615,62.1784525 C50.0095615,58.2717037 53.2509234,55.174154 57.1652791,55.174154 C61.0796348,55.174154 64.1846973,58.2717037 64.1846973,62.1784525 C64.1846973,62.3100511 64.1777281,62.5430023 64.16404,62.7225905 L50.0302188,62.7225905 C50.0165307,62.5430023 50.0095615,62.3615397 50.0095615,62.1784525 Z" id="Combined-Shape" fill="#FFC200" mask="url(#mask-2)"/>
                <path d="M56.4637293,56.3681525 L57.9229962,56.3681525 C58.7298248,56.3681525 59.3838886,57.0222163 59.3838886,57.8290448 L59.3838886,57.8290448 C59.3838886,58.6358734 58.7298248,59.2899372 57.9229962,59.2899372 L56.4637293,59.2899372 C55.6569007,59.2899372 55.002837,58.6358734 55.002837,57.8290448 L55.002837,57.8290448 C55.002837,57.0222163 55.6569007,56.3681525 56.4637293,56.3681525 Z" id="Rectangle-82" fill="#FFEB16" mask="url(#mask-2)"/>
                <ellipse id="Oval-2-Copy-4" fill="#78C800" mask="url(#mask-2)" cx="79.7883972" cy="68.5082005" rx="17.5872835" ry="17.6598837"/>
                <path d="M70.384428,57.48929 C72.019417,56.584025 73.5248769,56.28227 74.9008078,56.584025" id="Path-2-Copy" stroke="#8EE000" stroke-width="5.86701682" stroke-linecap="round" stroke-linejoin="round" mask="url(#mask-2)"/>
            </g>
        </g>
    </g>
</svg>